<svg xmlns="http://www.w3.org/2000/svg" viewBox="0 0 533.5 544.3" width="24" height="24">
  <path fill="#4285f4" d="M533.5 278.4c0-17.7-1.6-35.2-4.7-52H272v98.6h146.9c-6.4 34.7-25.6 64.1-54.7 83.5v68h88.4c51.7-47.6 81.9-117.9 81.9-198.1z"/>
  <path fill="#34a853" d="M272 544.3c73.7 0 135.6-24.4 180.8-66.2l-88.4-68c-24.6 16.5-56.1 26.1-92.4 26.1-70.9 0-130.9-47.9-152.4-112.1H28.2v70.6C73.6 475.5 165.3 544.3 272 544.3z"/>
  <path fill="#fbbc04" d="M119.6 323.9c-10.6-31.6-10.6-65.7 0-97.3V156H28.2c-38.5 76.9-38.5 166.5 0 243.4l91.4-70.5z"/>
  <path fill="#ea4335" d="M272 107.7c38.2 0 72.6 13.2 99.7 39.1l74.6-74.6C407.4 24.1 345.6 0 272 0 165.3 0 73.6 68.9 28.2 156l91.4 70.6C141.1 155.5 201.1 107.7 272 107.7z"/>
</svg>
