<svg xmlns="http://www.w3.org/2000/svg" viewBox="0 0 448 512" width="48" height="48">
  <path fill="#0A66C2" d="M100.28 448H7.4V148.9h92.88zm-46.44-340.9C24.57 107.1 0 82.4 0 53.6 0 24.5 24.57 0 53.84 0c29.27 0 53.83 24.5 53.83 53.6 0 28.8-24.56 53.5-53.83 53.5zM447.9 448h-92.4V302.4c0-34.7-12.4-58.4-43.3-58.4-23.6 0-37.6 15.9-43.8 31.3-2.3 5.6-2.9 13.4-2.9 21.2V448h-92.3s1.2-241.5 0-266.1h92.3v37.7c-.2.3-.5.7-.7 1h.7v-1c12.2-18.8 33.9-45.6 82.4-45.6 60.2 0 105.3 39.3 105.3 123.7V448z"/>
</svg>
