<?xml version="1.0" encoding="UTF-8" standalone="no"?>
<!-- Created with Inkscape (http://www.inkscape.org/) -->

<svg
   width="150.38004mm"
   height="27.155722mm"
   viewBox="0 0 150.38004 27.155722"
   version="1.1"
   id="svg1"
   xml:space="preserve"
   xmlns="http://www.w3.org/2000/svg"
   xmlns:svg="http://www.w3.org/2000/svg"><defs
     id="defs1" /><g
     id="layer1"
     transform="translate(-24.875224,-195.66224)"><g
       id="g1"><path
         style="fill:#00ffd2;fill-opacity:1"
         d="m 30.660958,222.36183 c -2.584862,-0.60898 -4.651036,-2.4556 -5.338771,-4.77146 -0.791364,-2.66481 -0.839728,-2.61357 2.467199,-2.61357 h 2.879007 l 0.296032,1.17564 c 0.65651,2.60724 3.901281,2.77326 4.954112,0.25348 0.291344,-0.69728 0.368926,-2.80432 0.368926,-10.01958 v -9.13663 h 2.922458 2.922458 l -0.07819,9.85573 -0.07819,9.85573 -0.819887,1.45521 c -1.876792,3.3311 -6.201726,4.95697 -10.49516,3.94545 z m 20.628043,-0.0741 c -4.551454,-1.27849 -7.168733,-7.10043 -5.617761,-12.49629 2.708368,-9.42248 15.876268,-8.38838 17.392729,1.36587 1.193372,7.67607 -4.594709,13.14732 -11.774968,11.13042 z m 5.003483,-4.69231 c 2.112451,-1.98454 1.521245,-8.66774 -0.854576,-9.66042 -2.876141,-1.20173 -4.934605,1.61467 -4.50926,6.16958 0.351966,3.76913 3.137749,5.58214 5.363836,3.49084 z m 17.698104,4.68685 c -0.436562,-0.19072 -1.164179,-0.65899 -1.616926,-1.0406 -0.923091,-0.77807 -1.161199,-0.69731 -1.161199,0.39383 v 0.74965 H 68.698921 66.18538 v -13.36146 -13.36146 h 2.778125 2.778125 v 4.75705 4.75705 l 1.212208,-0.85445 c 4.260116,-3.0028 9.383974,0.26909 10.221261,6.5269 1.055752,7.89061 -3.711025,13.8246 -9.184511,11.43349 z m 2.326415,-4.39917 c 1.39059,-1.09384 1.842116,-6.11134 0.768395,-8.53866 -0.820564,-1.85503 -2.961899,-2.28821 -4.669885,-0.94471 -0.993675,0.78162 -1.057873,8.25216 -0.07857,9.14312 1.129613,1.02772 2.91234,1.18012 3.980061,0.34025 z m 47.196267,4.40286 c -7.4267,-2.08504 -8.3203,-14.48987 -1.29301,-17.94939 2.92756,-1.44123 5.8412,-1.39093 8.17468,-0.22325 2.91532,1.45884 4.92508,4.66176 4.92508,8.87912 0,7.00585 -5.24626,11.13536 -11.80675,9.29352 z m 4.85042,-4.53213 c 2.1803,-1.97314 1.67611,-8.82831 -0.72303,-9.83074 -3.35391,-1.40135 -5.64972,3.05682 -4.15907,8.07639 0.66914,2.25324 3.29012,3.19507 4.8821,1.75435 z m 35.98211,4.53317 c -10.20613,-2.96119 -8.19371,-18.85617 2.38125,-18.80814 5.37408,0.0244 8.19407,2.91439 8.42376,8.63282 l 0.10445,2.60055 h -5.85161 c -6.40142,0 -6.21501,-0.0572 -5.27373,1.6176 1.29755,2.30868 4.8076,2.73211 7.26706,0.87665 l 0.83347,-0.62878 1.2512,1.46454 1.25119,1.46454 -0.72171,0.75331 c -1.84083,1.92141 -6.59366,2.91812 -9.66533,2.02691 z m 5.29166,-12.03405 c 0,-3.00737 -4.27533,-3.60434 -5.55891,-0.7762 -0.8291,1.82676 -0.87234,1.7959 2.5162,1.7959 h 3.04271 z m -74.347914,-0.43108 v -12.61761 l 5.637174,0.0889 5.63717,0.0889 1.99355,0.98579 c 9.27957,4.58864 8.59436,19.75596 -1.05265,23.30079 -1.28606,0.47257 -2.26263,0.5667 -6.85743,0.66096 l -5.357814,0.10992 z m 9.847514,7.78914 c 2.67972,-0.74424 3.75022,-2.92146 3.76689,-7.66128 0.0215,-6.09848 -1.50678,-8.20208 -5.95871,-8.20208 h -1.83486 v 7.8934 c 0,4.34137 0.0794,7.97278 0.17639,8.06979 0.27076,0.27076 2.74709,0.20655 3.85029,-0.0998 z m 33.01499,-4.61857 v -9.39271 h 2.64583 c 2.62197,0 2.64583,0.006 2.64583,0.63982 0,1.4139 0.23207,1.49817 1.48726,0.54007 2.6407,-2.0157 6.37889,-1.86671 8.42101,0.33563 1.31737,1.42072 1.46882,2.4697 1.46882,10.17328 v 7.09662 h -2.7654 -2.7654 l -0.0789,-6.73999 c -0.0766,-6.54263 -0.0959,-6.75704 -0.66195,-7.3226 -0.81088,-0.81024 -2.91518,-0.84436 -3.96109,-0.0642 l -0.7475,0.55754 -0.0706,6.78464 -0.0706,6.78465 h -2.77366 -2.77365 z"
         id="path1" /></g></g></svg>
